<svg xmlns="http://www.w3.org/2000/svg" viewBox="0 0 512 512" width="512" height="512"><defs>
      <linearGradient id="g" x1="0" y1="0" x2="1" y2="1"><stop offset="0" stop-color="#00F0C2"/><stop offset="1" stop-color="#73FFE8"/></linearGradient>
      <filter id="glow" x="-60%" y="-60%" width="220%" height="220%"><feGaussianBlur stdDeviation="7" result="b"/><feMerge><feMergeNode in="b"/><feMergeNode in="SourceGraphic"/></feMerge></filter>
      <linearGradient id="cardbg" x1="0" y1="0" x2="1" y2="1"><stop offset="0" stop-color="#0B2133"/><stop offset="1" stop-color="#071525"/></linearGradient>
    </defs><path d="M1165 595 621 51Q602 32 576.0 32.0Q550 32 531.0 51.0Q512 70 512 96V384H64Q38 384 19.0 403.0Q0 422 0 448V832Q0 858 19.0 877.0Q38 896 64 896H512V1184Q512 1210 531.0 1229.0Q550 1248 576.0 1248.0Q602 1248 621 1229L1165 685Q1184 666 1184.0 640.0Q1184 614 1165 595ZM1536 992V288Q1536 169 1451.5 84.5Q1367 0 1248 0H928Q915 0 905.5 9.5Q896 19 896 32Q896 36 895.0 52.0Q894 68 894.5 78.5Q895 89 897.5 102.0Q900 115 907.5 121.5Q915 128 928 128H1248Q1314 128 1361.0 175.0Q1408 222 1408 288V992Q1408 1058 1361.0 1105.0Q1314 1152 1248 1152H960Q959 1152 949.0 1152.0Q939 1152 936.0 1152.0Q933 1152 924.5 1153.0Q916 1154 913.0 1156.0Q910 1158 905.0 1161.5Q900 1165 898.0 1170.5Q896 1176 896 1184Q896 1188 895.0 1204.0Q894 1220 894.5 1230.5Q895 1241 897.5 1254.0Q900 1267 907.5 1273.5Q915 1280 928 1280H1248Q1367 1280 1451.5 1195.5Q1536 1111 1536 992Z" transform="translate(256.000 256.000) scale(0.195312 -0.195312) translate(-768.000 -640.000)" fill="none" stroke="url(#g)" stroke-width="24" stroke-linejoin="round" stroke-linecap="round" filter="url(#glow)"/></svg>