<svg xmlns="http://www.w3.org/2000/svg" viewBox="0 0 512 512" width="512" height="512"><defs>
      <linearGradient id="g" x1="0" y1="0" x2="1" y2="1"><stop offset="0" stop-color="#00F0C2"/><stop offset="1" stop-color="#73FFE8"/></linearGradient>
      <filter id="glow" x="-60%" y="-60%" width="220%" height="220%"><feGaussianBlur stdDeviation="7" result="b"/><feMerge><feMergeNode in="b"/><feMergeNode in="SourceGraphic"/></feMerge></filter>
      <linearGradient id="cardbg" x1="0" y1="0" x2="1" y2="1"><stop offset="0" stop-color="#0B2133"/><stop offset="1" stop-color="#071525"/></linearGradient>
    </defs><path d="M1760 1408Q1826 1408 1873.0 1361.0Q1920 1314 1920 1248V32Q1920 -34 1873.0 -81.0Q1826 -128 1760 -128H160Q94 -128 47.0 -81.0Q0 -34 0 32V1248Q0 1314 47.0 1361.0Q94 1408 160 1408ZM160 1280Q147 1280 137.5 1270.5Q128 1261 128 1248V1024H1792V1248Q1792 1261 1782.5 1270.5Q1773 1280 1760 1280ZM1760 0Q1773 0 1782.5 9.5Q1792 19 1792 32V640H128V32Q128 19 137.5 9.5Q147 0 160 0ZM256 128V256H512V128ZM640 128V256H1024V128Z" transform="translate(256.000 256.000) scale(0.156250 -0.156250) translate(-960.000 -640.000)" fill="url(#g)" filter="url(#glow)"/></svg>